<svg xmlns="http://www.w3.org/2000/svg" width="32" height="32" viewBox="0 0 48 48"><path fill="none" stroke="#ebf2ff" stroke-linecap="round" stroke-linejoin="round" d="M14.122 39.39c2.886 1.476 6.126 2.245 9.365 2.31H24c3.271 0 6.51-.706 9.461-2.117c2.694-1.283 5.132-3.207 6.928-5.613c2.053-2.758 3.111-6.062 3.111-9.494V8.408c0-1.507-1.507-2.502-2.886-1.956L33.3 9.498c-.481.193-1.026.225-1.507.033C29.42 8.6 26.79 8.119 24 8.119s-5.42.514-7.793 1.412c-.482.192-1.027.16-1.508-.033l-7.312-2.95c-1.38-.577-2.887.45-2.887 1.957v16.389c0 3.175 1.026 6.254 2.855 8.82c1.731 2.405 4.105 4.33 6.767 5.676M31.12 24.54c1.764 0 3.207 1.444 3.207 3.208s-1.443 3.207-3.207 3.207s-3.207-1.443-3.207-3.207a3.196 3.196 0 0 1 3.207-3.207m-14.24 0c1.764 0 3.207 1.444 3.207 3.208s-1.443 3.207-3.207 3.207s-3.207-1.443-3.207-3.207a3.196 3.196 0 0 1 3.207-3.207"/></svg>